<svg width="20" height="20" viewBox="0 0 20 20" fill="none" xmlns="http://www.w3.org/2000/svg">
<g id="Frame">
<g id="Vector" filter="url(#filter0_i_38_779)">
<path d="M13.7625 17.5H6.2375C5.00552 17.5646 3.79751 17.1423 2.87417 16.3241C2.46209 15.8885 2.14263 15.3738 1.93508 14.8112C1.72754 14.2486 1.63623 13.6497 1.66667 13.0508V6.94913C1.63623 6.35023 1.72754 5.75138 1.93508 5.18876C2.14263 4.62615 2.46209 4.11146 2.87417 3.6758C3.79751 2.85763 5.00552 2.43531 6.2375 2.49996H13.7633C14.9963 2.43467 16.2051 2.85908 17.1267 3.6808C17.5397 4.12208 17.8594 4.64216 18.0668 5.20989C18.2741 5.77763 18.3648 6.38137 18.3333 6.98496H14.8075V7.0133C14.0254 7.01062 13.2735 7.31493 12.7133 7.8608C12.4386 8.12502 12.2201 8.44195 12.0707 8.79262C11.9214 9.14329 11.8443 9.52049 11.8442 9.90163C11.8549 10.6774 12.173 11.4173 12.7285 11.9589C13.284 12.5005 14.0317 12.7997 14.8075 12.7908H18.3333V13.05C18.3638 13.6489 18.2725 14.2477 18.0649 14.8103C17.8574 15.3729 17.5379 15.8876 17.1258 16.3233C16.2026 17.1418 14.9946 17.5644 13.7625 17.5ZM17.7108 11.5491H14.8492C14.4554 11.553 14.0719 11.424 13.7605 11.183C13.4492 10.942 13.2282 10.603 13.1333 10.2208C13.0868 9.97895 13.095 9.72974 13.1574 9.49149C13.2199 9.25325 13.3349 9.03204 13.4942 8.84413C13.6559 8.65294 13.8569 8.49888 14.0835 8.39245C14.3102 8.28603 14.5571 8.22975 14.8075 8.22746H17.7108C17.8736 8.22568 18.0304 8.28841 18.1471 8.40193C18.2637 8.51546 18.3307 8.67055 18.3333 8.8333V10.9425C18.3284 11.1044 18.2607 11.2582 18.1445 11.3712C18.0284 11.4842 17.8729 11.5486 17.7108 11.5491ZM14.925 9.20163C14.7604 9.20063 14.6019 9.26403 14.4833 9.3783C14.4245 9.43483 14.3775 9.50261 14.3453 9.57762C14.3131 9.65263 14.2963 9.73334 14.2958 9.81497C14.2985 9.98238 14.3668 10.1421 14.486 10.2596C14.6052 10.3771 14.7659 10.4431 14.9333 10.4433H15.2075C15.3722 10.4433 15.5301 10.3779 15.6465 10.2615C15.7629 10.145 15.8283 9.98712 15.8283 9.82246C15.8283 9.65781 15.7629 9.4999 15.6465 9.38347C15.5301 9.26704 15.3722 9.20163 15.2075 9.20163H14.925Z" fill="#AABCD1"/>
</g>
<g id="Vector_2" filter="url(#filter1_d_38_779)">
<path d="M5.615 5.74332C5.44967 5.74172 5.29033 5.8051 5.17126 5.91981C5.05219 6.03451 4.98291 6.19138 4.97833 6.35665C4.98095 6.52392 5.04913 6.68347 5.1682 6.80098C5.28727 6.91849 5.44771 6.98457 5.615 6.98498H10.3192C10.4007 6.985 10.4814 6.96895 10.5568 6.93776C10.6321 6.90656 10.7006 6.86083 10.7582 6.80318C10.8159 6.74553 10.8616 6.67709 10.8928 6.60176C10.924 6.52643 10.9401 6.44569 10.9401 6.36415C10.9401 6.28261 10.924 6.20187 10.8928 6.12654C10.8616 6.05121 10.8159 5.98277 10.7582 5.92511C10.7006 5.86746 10.6321 5.82174 10.5568 5.79054C10.4814 5.75935 10.4007 5.7433 10.3192 5.74332H5.615Z" fill="#EFF7FF"/>
</g>
</g>
<defs>
<filter id="filter0_i_38_779" x="1.66095" y="2.49341" width="16.6785" height="17.0131" filterUnits="userSpaceOnUse" color-interpolation-filters="sRGB">
<feFlood flood-opacity="0" result="BackgroundImageFix"/>
<feBlend mode="normal" in="SourceGraphic" in2="BackgroundImageFix" result="shape"/>
<feColorMatrix in="SourceAlpha" type="matrix" values="0 0 0 0 0 0 0 0 0 0 0 0 0 0 0 0 0 0 127 0" result="hardAlpha"/>
<feOffset dy="2"/>
<feGaussianBlur stdDeviation="1"/>
<feComposite in2="hardAlpha" operator="arithmetic" k2="-1" k3="1"/>
<feColorMatrix type="matrix" values="0 0 0 0 0 0 0 0 0 0 0 0 0 0 0 0 0 0 0.1 0"/>
<feBlend mode="normal" in2="shape" result="effect1_innerShadow_38_779"/>
</filter>
<filter id="filter1_d_38_779" x="3.97833" y="5.74329" width="7.96178" height="3.2417" filterUnits="userSpaceOnUse" color-interpolation-filters="sRGB">
<feFlood flood-opacity="0" result="BackgroundImageFix"/>
<feColorMatrix in="SourceAlpha" type="matrix" values="0 0 0 0 0 0 0 0 0 0 0 0 0 0 0 0 0 0 127 0" result="hardAlpha"/>
<feOffset dy="1"/>
<feGaussianBlur stdDeviation="0.5"/>
<feComposite in2="hardAlpha" operator="out"/>
<feColorMatrix type="matrix" values="0 0 0 0 0 0 0 0 0 0 0 0 0 0 0 0 0 0 0.15 0"/>
<feBlend mode="normal" in2="BackgroundImageFix" result="effect1_dropShadow_38_779"/>
<feBlend mode="normal" in="SourceGraphic" in2="effect1_dropShadow_38_779" result="shape"/>
</filter>
</defs>
</svg>
