<svg width="20" height="20" viewBox="0 0 20 20" fill="none" xmlns="http://www.w3.org/2000/svg">
<g id="Frame">
<g id="Vector" filter="url(#filter0_i_38_789)">
<path d="M9.97656 18.7852C5.14648 18.7852 1.21484 14.8555 1.21484 10.0234C1.21484 5.19141 5.14453 1.26367 9.97656 1.26367C14.8086 1.26367 18.7383 5.19336 18.7383 10.0254C18.7383 14.8574 14.8066 18.7852 9.97656 18.7852Z" fill="#AABCD1"/>
</g>
<g id="Vector_2" filter="url(#filter1_d_38_789)">
<path d="M9.97656 13.793C9.52734 13.793 9.10352 13.6172 8.78516 13.2988L6.69922 11.2148C6.38086 10.8965 6.20508 10.4746 6.20508 10.0254C6.20508 9.57617 6.38086 9.15234 6.69922 8.83594L8.78516 6.75C9.41992 6.11523 10.5293 6.11328 11.166 6.75L13.252 8.83594C13.9082 9.49219 13.9082 10.5605 13.252 11.2148L11.166 13.3008C10.8477 13.6191 10.4258 13.793 9.97656 13.793Z" fill="#EFF7FF"/>
</g>
</g>
<defs>
<filter id="filter0_i_38_789" x="1.21484" y="1.26367" width="17.5234" height="19.5215" filterUnits="userSpaceOnUse" color-interpolation-filters="sRGB">
<feFlood flood-opacity="0" result="BackgroundImageFix"/>
<feBlend mode="normal" in="SourceGraphic" in2="BackgroundImageFix" result="shape"/>
<feColorMatrix in="SourceAlpha" type="matrix" values="0 0 0 0 0 0 0 0 0 0 0 0 0 0 0 0 0 0 127 0" result="hardAlpha"/>
<feOffset dy="2"/>
<feGaussianBlur stdDeviation="1"/>
<feComposite in2="hardAlpha" operator="arithmetic" k2="-1" k3="1"/>
<feColorMatrix type="matrix" values="0 0 0 0 0 0 0 0 0 0 0 0 0 0 0 0 0 0 0.1 0"/>
<feBlend mode="normal" in2="shape" result="effect1_innerShadow_38_789"/>
</filter>
<filter id="filter1_d_38_789" x="5.20508" y="6.27319" width="9.53906" height="9.51978" filterUnits="userSpaceOnUse" color-interpolation-filters="sRGB">
<feFlood flood-opacity="0" result="BackgroundImageFix"/>
<feColorMatrix in="SourceAlpha" type="matrix" values="0 0 0 0 0 0 0 0 0 0 0 0 0 0 0 0 0 0 127 0" result="hardAlpha"/>
<feOffset dy="1"/>
<feGaussianBlur stdDeviation="0.5"/>
<feComposite in2="hardAlpha" operator="out"/>
<feColorMatrix type="matrix" values="0 0 0 0 0 0 0 0 0 0 0 0 0 0 0 0 0 0 0.15 0"/>
<feBlend mode="normal" in2="BackgroundImageFix" result="effect1_dropShadow_38_789"/>
<feBlend mode="normal" in="SourceGraphic" in2="effect1_dropShadow_38_789" result="shape"/>
</filter>
</defs>
</svg>
